<svg xmlns="http://www.w3.org/2000/svg" viewBox="0 0 880 134" width="880" height="134" role="img" aria-label="MOVIE-RECOMMENDER: TF-IDF, 5k movies tf-idf · streamlit"><title>MOVIE-RECOMMENDER: TF-IDF, 5k movies tf-idf · streamlit</title><style>.m{font-family:M,ui-monospace,SFMono-Regular,monospace;font-size:11px;fill:#191817}.d{font-family:D,Inter,system-ui,sans-serif;font-weight:800;fill:#191817}.b{font-family:B,ui-monospace,monospace;font-weight:700;fill:#191817}.dim{fill-opacity:.55}.acc{fill:#29a298}.hair{stroke:rgba(25,24,23,.16);stroke-width:1}.ln{fill:none;stroke:#191817;stroke-opacity:.5}.fill{fill:#191817}.ar{fill:none;stroke:#29a298;stroke-width:1.7;stroke-linecap:round;stroke-linejoin:round}@keyframes bl{0%,49%{opacity:1}50%,100%{opacity:0}}.bl{animation:bl 1.1s steps(1) infinite}
@keyframes fl{0%{transform:translate(0)}85%,100%{transform:translate(-256px)}}.fl{animation:fl 7s cubic-bezier(.6,0,.2,1) infinite}
@media (prefers-reduced-motion:reduce){*{animation:none!important}}</style><line class="hair" x1="28" x2="852" y1=".5" y2=".5"/><text class="m acc" x="30" y="32">03</text><text class="d" x="28" y="64" font-size="28">MOVIE-RECOMMENDER</text><g transform="translate(328,42)"><path class="ar" d="M0,12L12,0M3.84,0H12V8.16"/></g><text class="m dim" x="30" y="88">TF-IDF, 5k movies</text><text class="m acc" x="30" y="106" font-size="10.5">tf-idf · streamlit</text><g transform="translate(652,15)"><rect class="ln" x=".5" y=".5" width="199" height="103" rx="6"/><clipPath id="flm"><rect x="4" y="14" width="192" height="76"/></clipPath><g clip-path="url(#flm)"><g class="fl"><rect x="-60" y="30" width="56" height="44" rx="3" fill="none" stroke="#191817" stroke-opacity=".4"/><g transform="translate(-60,0)"><circle cx="28" cy="52" r="10" fill="#29a298" fill-opacity=".5"/></g><rect x="-54" y="20" width="6" height="5" rx="1.5" fill="#191817" fill-opacity=".25"/><rect x="-54" y="79" width="6" height="5" rx="1.5" fill="#191817" fill-opacity=".25"/><rect x="-38" y="20" width="6" height="5" rx="1.5" fill="#191817" fill-opacity=".25"/><rect x="-38" y="79" width="6" height="5" rx="1.5" fill="#191817" fill-opacity=".25"/><rect x="-22" y="20" width="6" height="5" rx="1.5" fill="#191817" fill-opacity=".25"/><rect x="-22" y="79" width="6" height="5" rx="1.5" fill="#191817" fill-opacity=".25"/><rect x="4" y="30" width="56" height="44" rx="3" fill="none" stroke="#191817" stroke-opacity=".4"/><g transform="translate(4,0)"><polygon points="28,42 38,60 18,60" fill="#191817" fill-opacity=".35"/></g><rect x="10" y="20" width="6" height="5" rx="1.5" fill="#191817" fill-opacity=".25"/><rect x="10" y="79" width="6" height="5" rx="1.5" fill="#191817" fill-opacity=".25"/><rect x="26" y="20" width="6" height="5" rx="1.5" fill="#191817" fill-opacity=".25"/><rect x="26" y="79" width="6" height="5" rx="1.5" fill="#191817" fill-opacity=".25"/><rect x="42" y="20" width="6" height="5" rx="1.5" fill="#191817" fill-opacity=".25"/><rect x="42" y="79" width="6" height="5" rx="1.5" fill="#191817" fill-opacity=".25"/><rect x="68" y="30" width="56" height="44" rx="3" fill="none" stroke="#191817" stroke-opacity=".4"/><g transform="translate(68,0)"><rect x="20" y="44" width="16" height="16" rx="2" fill="#191817" fill-opacity=".35"/></g><rect x="74" y="20" width="6" height="5" rx="1.5" fill="#191817" fill-opacity=".25"/><rect x="74" y="79" width="6" height="5" rx="1.5" fill="#191817" fill-opacity=".25"/><rect x="90" y="20" width="6" height="5" rx="1.5" fill="#191817" fill-opacity=".25"/><rect x="90" y="79" width="6" height="5" rx="1.5" fill="#191817" fill-opacity=".25"/><rect x="106" y="20" width="6" height="5" rx="1.5" fill="#191817" fill-opacity=".25"/><rect x="106" y="79" width="6" height="5" rx="1.5" fill="#191817" fill-opacity=".25"/><rect x="132" y="30" width="56" height="44" rx="3" fill="none" stroke="#191817" stroke-opacity=".4"/><g transform="translate(132,0)"><rect x="18" y="48" width="20" height="4" fill="#29a298" fill-opacity=".6"/><rect x="18" y="55" width="13" height="4" fill="#191817" fill-opacity=".3"/></g><rect x="138" y="20" width="6" height="5" rx="1.5" fill="#191817" fill-opacity=".25"/><rect x="138" y="79" width="6" height="5" rx="1.5" fill="#191817" fill-opacity=".25"/><rect x="154" y="20" width="6" height="5" rx="1.5" fill="#191817" fill-opacity=".25"/><rect x="154" y="79" width="6" height="5" rx="1.5" fill="#191817" fill-opacity=".25"/><rect x="170" y="20" width="6" height="5" rx="1.5" fill="#191817" fill-opacity=".25"/><rect x="170" y="79" width="6" height="5" rx="1.5" fill="#191817" fill-opacity=".25"/><rect x="196" y="30" width="56" height="44" rx="3" fill="none" stroke="#191817" stroke-opacity=".4"/><g transform="translate(196,0)"><circle cx="28" cy="52" r="10" fill="#29a298" fill-opacity=".5"/></g><rect x="202" y="20" width="6" height="5" rx="1.5" fill="#191817" fill-opacity=".25"/><rect x="202" y="79" width="6" height="5" rx="1.5" fill="#191817" fill-opacity=".25"/><rect x="218" y="20" width="6" height="5" rx="1.5" fill="#191817" fill-opacity=".25"/><rect x="218" y="79" width="6" height="5" rx="1.5" fill="#191817" fill-opacity=".25"/><rect x="234" y="20" width="6" height="5" rx="1.5" fill="#191817" fill-opacity=".25"/><rect x="234" y="79" width="6" height="5" rx="1.5" fill="#191817" fill-opacity=".25"/></g></g><rect x="68" y="28" width="64" height="48" rx="4" fill="none" stroke="#29a298" stroke-width="1.6"/></g></svg>